<svg width="56" height="56" viewBox="0 0 56 56" fill="none" xmlns="http://www.w3.org/2000/svg">
<g clip-path="url(#clip0_3207_5241)">
<path d="M28 56C43.464 56 56 43.464 56 28C56 12.536 43.464 0 28 0C12.536 0 0 12.536 0 28C0 43.464 12.536 56 28 56Z" fill="#F4B731"/>
<path fill-rule="evenodd" clip-rule="evenodd" d="M16.2348 14H27.7008C34.6745 14 39.9613 17.703 41.9282 23.0895H45.5V26.3463H42.6807C42.735 26.8608 42.763 27.3857 42.763 27.9178V27.9982C42.763 28.5967 42.728 29.1883 42.658 29.7658H45.5V33.0207H41.86C39.8423 38.3337 34.5975 42 27.7025 42H16.2348V33.0207H12.25V29.7658H16.2348V26.3463H12.25V23.0912H16.2348V14ZM19.439 33.0207V39.0792H27.699C32.7985 39.0792 36.5855 36.652 38.3477 33.0207H19.439ZM39.3295 29.7658H19.439V26.3463H39.3365C39.4083 26.8835 39.4468 27.4347 39.4468 27.9982V28.077C39.4468 28.6528 39.4065 29.2145 39.3295 29.764V29.7658ZM27.7025 16.9137C32.823 16.9137 36.6222 19.4057 38.374 23.0877H19.439V16.9155H27.699L27.7025 16.9137Z" fill="white"/>
</g>
<defs>
<clipPath id="clip0_3207_5241">
<rect width="56" height="56" fill="white"/>
</clipPath>
</defs>
</svg>
