<svg width="36" height="36" viewBox="0 0 36 36" fill="none" xmlns="http://www.w3.org/2000/svg">
<g clip-path="url(#clip0_3207_7714)">
<path d="M18 36C27.9411 36 36 27.9411 36 18C36 8.05887 27.9411 0 18 0C8.05887 0 0 8.05887 0 18C0 27.9411 8.05887 36 18 36Z" fill="#F4B731"/>
<path fill-rule="evenodd" clip-rule="evenodd" d="M10.4366 9H17.8076C22.2908 9 25.6894 11.3805 26.9539 14.8433H29.25V16.9369H27.4376C27.4725 17.2676 27.4905 17.6051 27.4905 17.9471V17.9989C27.4905 18.3836 27.468 18.7639 27.423 19.1351H29.25V21.2276H26.91C25.6129 24.6431 22.2413 27 17.8088 27H10.4366V21.2276H7.875V19.1351H10.4366V16.9369H7.875V14.8444H10.4366V9ZM12.4965 21.2276V25.1224H17.8065C21.0848 25.1224 23.5192 23.562 24.6521 21.2276H12.4965ZM25.2833 19.1351H12.4965V16.9369H25.2878C25.3339 17.2823 25.3586 17.6366 25.3586 17.9989V18.0495C25.3586 18.4196 25.3328 18.7807 25.2833 19.134V19.1351ZM17.8088 10.8731C21.1005 10.8731 23.5429 12.4751 24.669 14.8421H12.4965V10.8743H17.8065L17.8088 10.8731Z" fill="white"/>
</g>
<defs>
<clipPath id="clip0_3207_7714">
<rect width="36" height="36" fill="white"/>
</clipPath>
</defs>
</svg>
