<svg width="40" height="40" viewBox="0 0 40 40" fill="none" xmlns="http://www.w3.org/2000/svg">
<g clip-path="url(#clip0_2958_6045)">
<path d="M20 40C31.0457 40 40 31.0457 40 20C40 8.9543 31.0457 0 20 0C8.9543 0 0 8.9543 0 20C0 31.0457 8.9543 40 20 40Z" fill="#627EEA"/>
<path d="M19.9963 3.9989V15.826L29.9927 20.2929L19.9963 3.9989Z" fill="white" fill-opacity="0.602"/>
<path d="M19.9977 3.9989L10 20.2929L19.9977 15.826V3.9989Z" fill="white"/>
<path d="M19.9963 27.957V35.9933L29.9994 22.1541L19.9963 27.957Z" fill="white" fill-opacity="0.602"/>
<path d="M19.9977 35.9933V27.9556L10 22.1541L19.9977 35.9933Z" fill="white"/>
<path d="M19.9963 26.0979L29.9927 20.2936L19.9963 15.8295V26.0979Z" fill="white" fill-opacity="0.2"/>
<path d="M10 20.2936L19.9977 26.0979V15.8295L10 20.2936Z" fill="white" fill-opacity="0.602"/>
</g>
<defs>
<clipPath id="clip0_2958_6045">
<rect width="40" height="40" fill="white"/>
</clipPath>
</defs>
</svg>
