<svg width="36" height="36" viewBox="0 0 36 36" fill="none" xmlns="http://www.w3.org/2000/svg">
<g clip-path="url(#clip0_3070_11091)">
<path d="M18 36C27.9411 36 36 27.9411 36 18C36 8.05887 27.9411 0 18 0C8.05887 0 0 8.05887 0 18C0 27.9411 8.05887 36 18 36Z" fill="#627EEA"/>
<path d="M17.9968 3.599V14.2434L26.9936 18.2636L17.9968 3.599Z" fill="white" fill-opacity="0.602"/>
<path d="M17.998 3.599L9 18.2636L17.998 14.2434V3.599Z" fill="white"/>
<path d="M17.9968 25.1613V32.394L26.9996 19.9387L17.9968 25.1613Z" fill="white" fill-opacity="0.602"/>
<path d="M17.998 32.394V25.1601L9 19.9387L17.998 32.394Z" fill="white"/>
<path d="M17.9968 23.4882L26.9936 18.2643L17.9968 14.2466V23.4882Z" fill="white" fill-opacity="0.2"/>
<path d="M9 18.2643L17.998 23.4882V14.2466L9 18.2643Z" fill="white" fill-opacity="0.602"/>
</g>
<defs>
<clipPath id="clip0_3070_11091">
<rect width="36" height="36" fill="white"/>
</clipPath>
</defs>
</svg>
