<svg width="36" height="36" viewBox="0 0 36 36" fill="none" xmlns="http://www.w3.org/2000/svg">
<g clip-path="url(#clip0_3207_7702)">
<path d="M18 36C27.9411 36 36 27.9411 36 18C36 8.05887 27.9411 0 18 0C8.05887 0 0 8.05887 0 18C0 27.9411 8.05887 36 18 36Z" fill="#48A0F8"/>
<g clip-path="url(#clip1_3207_7702)">
<path d="M10.1786 15.9427L9.96427 16.2691C7.49998 20.1856 8.0357 25.2988 11.3571 28.5625C13.1786 30.5208 15.75 31.4999 18.3214 31.4999C18.3214 31.4999 18.3214 31.4999 10.1786 15.9427Z" fill="#FFFFFE"/>
<path d="M18.3216 20.6208L10.1787 15.834C18.3216 31.4999 18.3216 31.4999 18.3216 31.4999C18.3216 28.1274 18.3216 24.2109 18.3216 20.6208Z" fill="#A8D9FB"/>
<path d="M26.4644 15.9427L26.6787 16.2691C29.143 20.1856 28.6072 25.2988 25.2858 28.5625C23.3572 30.5208 20.893 31.4999 18.3215 31.4999C18.3215 31.4999 18.3215 31.4999 26.4644 15.9427Z" fill="#A8D9FB"/>
<path d="M18.3215 20.6208L26.4644 15.834C18.3215 31.4999 18.3215 31.4999 18.3215 31.4999C18.3215 28.1274 18.3215 24.2109 18.3215 20.6208Z" fill="#5DB2F9"/>
<path d="M18.3215 10.0681V18.2275L25.393 14.2022L18.3215 10.0681Z" fill="#5CB3F9"/>
<path d="M18.3214 10.0681L11.25 14.2022L18.3214 18.2275V10.0681Z" fill="#A8D9FB"/>
<path d="M18.3214 3.21423L11.25 14.2021L18.3214 10.0681V3.21423Z" fill="#FEFFFF"/>
<path d="M18.3215 10.0681L25.393 14.2021L18.3215 3.21423V10.0681Z" fill="#A8D8F9"/>
</g>
</g>
<defs>
<clipPath id="clip0_3207_7702">
<rect width="36" height="36" fill="white"/>
</clipPath>
<clipPath id="clip1_3207_7702">
<rect width="19.9286" height="28.2857" fill="white" transform="translate(8.35718 3.21423)"/>
</clipPath>
</defs>
</svg>
