<svg width="40" height="40" viewBox="0 0 40 40" fill="none" xmlns="http://www.w3.org/2000/svg">
<g clip-path="url(#clip0_3207_7612)">
<path d="M20 40C31.0457 40 40 31.0457 40 20C40 8.9543 31.0457 0 20 0C8.9543 0 0 8.9543 0 20C0 31.0457 8.9543 40 20 40Z" fill="#48A0F8"/>
<g clip-path="url(#clip1_3207_7612)">
<path d="M11.3095 17.7142L11.0714 18.0769C8.33331 22.4285 8.92855 28.1098 12.619 31.7362C14.6428 33.912 17.5 34.9999 20.3571 34.9999C20.3571 34.9999 20.3571 34.9999 11.3095 17.7142Z" fill="#FFFFFE"/>
<path d="M20.3572 22.9121L11.3096 17.5934C20.3572 35 20.3572 35 20.3572 35C20.3572 31.2527 20.3572 26.9011 20.3572 22.9121Z" fill="#A8D9FB"/>
<path d="M29.4048 17.7142L29.6429 18.0769C32.381 22.4285 31.7857 28.1098 28.0953 31.7362C25.9524 33.912 23.2143 34.9999 20.3572 34.9999C20.3572 34.9999 20.3572 34.9999 29.4048 17.7142Z" fill="#A8D9FB"/>
<path d="M20.3572 22.9121L29.4048 17.5934C20.3572 35 20.3572 35 20.3572 35C20.3572 31.2527 20.3572 26.9011 20.3572 22.9121Z" fill="#5DB2F9"/>
<path d="M20.3572 11.1868V20.2527L28.2143 15.7802L20.3572 11.1868Z" fill="#5CB3F9"/>
<path d="M20.3571 11.1868L12.5 15.7802L20.3571 20.2527V11.1868Z" fill="#A8D9FB"/>
<path d="M20.3571 3.57141L12.5 15.7802L20.3571 11.1868V3.57141Z" fill="#FEFFFF"/>
<path d="M20.3572 11.1868L28.2143 15.7802L20.3572 3.57141V11.1868Z" fill="#A8D8F9"/>
</g>
</g>
<defs>
<clipPath id="clip0_3207_7612">
<rect width="40" height="40" fill="white"/>
</clipPath>
<clipPath id="clip1_3207_7612">
<rect width="22.1429" height="31.4286" fill="white" transform="translate(9.28564 3.57141)"/>
</clipPath>
</defs>
</svg>
