<svg width="56" height="56" viewBox="0 0 56 56" fill="none" xmlns="http://www.w3.org/2000/svg">
<g clip-path="url(#clip0_3207_5157)">
<path d="M28 56C43.464 56 56 43.464 56 28C56 12.536 43.464 0 28 0C12.536 0 0 12.536 0 28C0 43.464 12.536 56 28 56Z" fill="#48A0F8"/>
<g clip-path="url(#clip1_3207_5157)">
<path d="M15.8333 24.8L15.5 25.3077C11.6666 31.4 12.5 39.3539 17.6666 44.4308C20.5 47.477 24.5 49 28.5 49C28.5 49 28.5 49 15.8333 24.8Z" fill="#FFFFFE"/>
<path d="M28.4999 32.0769L15.8333 24.6307C28.4999 49 28.4999 49 28.4999 49C28.4999 43.7538 28.4999 37.6615 28.4999 32.0769Z" fill="#A8D9FB"/>
<path d="M41.1667 24.8L41.5 25.3077C45.3333 31.4 44.5 39.3539 39.3333 44.4308C36.3333 47.477 32.5 49 28.5 49C28.5 49 28.5 49 41.1667 24.8Z" fill="#A8D9FB"/>
<path d="M28.5 32.0769L41.1667 24.6307C28.5 49 28.5 49 28.5 49C28.5 43.7538 28.5 37.6615 28.5 32.0769Z" fill="#5DB2F9"/>
<path d="M28.5 15.6615V28.3538L39.5 22.0923L28.5 15.6615Z" fill="#5CB3F9"/>
<path d="M28.5 15.6615L17.5 22.0923L28.5 28.3538V15.6615Z" fill="#A8D9FB"/>
<path d="M28.5 5L17.5 22.0923L28.5 15.6615V5Z" fill="#FEFFFF"/>
<path d="M28.5 15.6615L39.5 22.0923L28.5 5V15.6615Z" fill="#A8D8F9"/>
</g>
</g>
<defs>
<clipPath id="clip0_3207_5157">
<rect width="56" height="56" fill="white"/>
</clipPath>
<clipPath id="clip1_3207_5157">
<rect width="31" height="44" fill="white" transform="translate(13 5)"/>
</clipPath>
</defs>
</svg>
