<svg width="36" height="36" viewBox="0 0 36 36" fill="none" xmlns="http://www.w3.org/2000/svg">
<g clip-path="url(#clip0_3070_11087)">
<path d="M18.0001 36C21.5601 36 25.0402 34.9443 28.0003 32.9665C30.9604 30.9886 33.2675 28.1774 34.6299 24.8883C35.9923 21.5992 36.3487 17.98 35.6542 14.4884C34.9597 10.9967 33.2453 7.78943 30.728 5.27209C28.2106 2.75474 25.0033 1.04041 21.5117 0.345873C18.02 -0.348661 14.4008 0.00779904 11.1118 1.37018C7.82268 2.73255 5.01147 5.03966 3.0336 7.99974C1.05574 10.9598 5.44957e-05 14.4399 5.44957e-05 18C-0.00577304 20.3654 0.455833 22.7087 1.35835 24.8952C2.26087 27.0817 3.58652 29.0683 5.25914 30.7409C6.93175 32.4135 8.91837 33.7392 11.1049 34.6417C13.2914 35.5442 15.6346 36.0058 18.0001 36V36Z" fill="#2775CA"/>
<path d="M22.95 20.8506C22.95 18.2324 21.3759 17.3242 18.2259 16.9495C15.9742 16.65 15.5259 16.0495 15.5259 15.0006C15.5259 13.9517 16.2753 13.2742 17.7742 13.2742C19.1259 13.2742 19.8753 13.7242 20.25 14.85C20.2903 14.9585 20.3629 15.052 20.458 15.1178C20.5531 15.1837 20.6662 15.2187 20.7819 15.2182H21.9813C22.0508 15.22 22.1199 15.2077 22.1844 15.1819C22.249 15.1561 22.3076 15.1175 22.3567 15.0684C22.4059 15.0192 22.4445 14.9606 22.4703 14.8961C22.496 14.8315 22.5084 14.7624 22.5066 14.693V14.6193C22.3617 13.8064 21.9523 13.0642 21.3422 12.5079C20.732 11.9515 19.9552 11.6123 19.1324 11.543V9.74295C19.1324 9.4435 18.9066 9.21932 18.5319 9.14404H17.406C17.1066 9.14404 16.8824 9.36822 16.8071 9.74295V11.4742C14.5506 11.7819 13.1253 13.2742 13.1253 15.1495C13.1253 17.6253 14.6259 18.6006 17.7759 18.9753C19.8753 19.35 20.5577 19.7935 20.5577 20.9995C20.5577 22.2055 19.5088 23.0253 18.0835 23.0253C16.133 23.0253 15.4653 22.2071 15.233 21.0748C15.2115 20.9483 15.1464 20.8333 15.0489 20.7499C14.9514 20.6665 14.8278 20.6199 14.6995 20.6182H13.4182C13.3488 20.6167 13.2798 20.6292 13.2154 20.655C13.1509 20.6809 13.0924 20.7195 13.0433 20.7686C12.9942 20.8177 12.9556 20.8762 12.9297 20.9406C12.9039 21.0051 12.8914 21.0741 12.893 21.1435V21.2188C13.194 23.094 14.3935 24.444 16.8693 24.8188V26.6188C16.8693 26.9182 17.0935 27.144 17.4682 27.2193H18.594C18.8935 27.2193 19.1193 26.9935 19.193 26.6188V24.8188C21.443 24.444 22.9435 22.8682 22.9435 20.844L22.95 20.8506Z" fill="white"/>
<path d="M14.1742 28.7248C12.0162 27.9332 10.1532 26.4982 8.83716 24.6137C7.52108 22.7292 6.81535 20.486 6.81535 18.1874C6.81535 15.8888 7.52108 13.6457 8.83716 11.7611C10.1532 9.87659 12.0162 8.44157 14.1742 7.65004C14.3182 7.58777 14.4391 7.48205 14.5201 7.34768C14.6011 7.21331 14.638 7.057 14.6258 6.90059V5.85004C14.6359 5.71225 14.5957 5.57546 14.5127 5.46503C14.4296 5.3546 14.3094 5.27803 14.1742 5.2495C14.0686 5.23849 13.9625 5.26515 13.8747 5.32477C11.1443 6.19262 8.76089 7.90682 7.06945 10.2193C5.37801 12.5317 4.46631 15.3224 4.46631 18.1874C4.46631 21.0524 5.37801 23.8431 7.06945 26.1556C8.76089 28.468 11.1443 30.1822 13.8747 31.05C13.9371 31.0863 14.0071 31.1072 14.0792 31.1111C14.1512 31.1151 14.2231 31.1019 14.289 31.0727C14.355 31.0435 14.413 30.999 14.4585 30.9431C14.5039 30.8871 14.5355 30.8211 14.5505 30.7506C14.6258 30.6753 14.6258 30.6 14.6258 30.4495V29.4006C14.6258 29.1748 14.4 28.8753 14.1742 28.7248ZM22.1253 5.32477C22.0628 5.28855 21.9926 5.26766 21.9205 5.26382C21.8484 5.25998 21.7764 5.2733 21.7105 5.30269C21.6445 5.33208 21.5864 5.37669 21.5411 5.43287C21.4957 5.48905 21.4643 5.55519 21.4495 5.62586C21.3758 5.6995 21.3758 5.77477 21.3758 5.92532V6.97423C21.3885 7.12548 21.4356 7.27183 21.5136 7.40203C21.5916 7.53223 21.6984 7.64283 21.8258 7.72532C23.9838 8.51685 25.8468 9.95187 27.1629 11.8364C28.4789 13.7209 29.1847 15.9641 29.1847 18.2627C29.1847 20.5613 28.4789 22.8044 27.1629 24.689C25.8468 26.5735 23.9838 28.0085 21.8258 28.8C21.682 28.8624 21.5613 28.9682 21.4806 29.1026C21.3999 29.237 21.3632 29.3932 21.3758 29.5495V30.6C21.3657 30.7376 21.4056 30.8742 21.4883 30.9846C21.5711 31.095 21.6909 31.1717 21.8258 31.2006C21.9314 31.2116 22.0375 31.1849 22.1253 31.1253C24.8546 30.2455 27.2346 28.5226 28.9229 26.2046C30.6111 23.8865 31.5207 21.0927 31.5207 18.225C31.5207 15.3574 30.6111 12.5636 28.9229 10.2455C27.2346 7.92748 24.8546 6.20462 22.1253 5.32477V5.32477Z" fill="white"/>
</g>
<defs>
<clipPath id="clip0_3070_11087">
<rect width="36" height="36" fill="white"/>
</clipPath>
</defs>
</svg>
