<svg width="40" height="40" viewBox="0 0 40 40" fill="none" xmlns="http://www.w3.org/2000/svg">
<g clip-path="url(#clip0_2958_6046)">
<path d="M20.0001 40C23.9557 40 27.8225 38.827 31.1115 36.6294C34.4005 34.4318 36.9639 31.3082 38.4777 27.6537C39.9914 23.9992 40.3875 19.9778 39.6158 16.0982C38.8441 12.2186 36.9393 8.65492 34.1422 5.85787C31.3452 3.06082 27.7815 1.15601 23.9019 0.384303C20.0222 -0.387401 16.0009 0.00866561 12.3464 1.52242C8.69187 3.03617 5.5683 5.59962 3.37067 8.88861C1.17304 12.1776 6.05508e-05 16.0444 6.05508e-05 20C-0.00641449 22.6283 0.506481 25.2319 1.50928 27.6613C2.51208 30.0908 3.98502 32.2981 5.84349 34.1566C7.70195 36.015 9.9093 37.488 12.3387 38.4908C14.7682 39.4936 17.3718 40.0065 20.0001 40Z" fill="#2775CA"/>
<path d="M25.4999 23.1673C25.4999 20.2582 23.7508 19.2491 20.2508 18.8328C17.749 18.5 17.2508 17.8328 17.2508 16.6673C17.2508 15.5019 18.0835 14.7491 19.749 14.7491C21.2508 14.7491 22.0835 15.2491 22.4999 16.5C22.5446 16.6206 22.6253 16.7244 22.7309 16.7976C22.8366 16.8708 22.9623 16.9097 23.0908 16.9091H24.4235C24.5007 16.9111 24.5775 16.8974 24.6492 16.8688C24.7209 16.8401 24.7861 16.7972 24.8407 16.7426C24.8953 16.688 24.9382 16.6229 24.9668 16.5512C24.9954 16.4795 25.0092 16.4027 25.0072 16.3255V16.2437C24.8461 15.3405 24.3913 14.5157 23.7134 13.8976C23.0354 13.2795 22.1723 12.9026 21.2581 12.8255V10.8255C21.2581 10.4928 21.0072 10.2437 20.5908 10.16H19.3399C19.0072 10.16 18.7581 10.4091 18.6744 10.8255V12.7491C16.1672 13.0909 14.5835 14.7491 14.5835 16.8328C14.5835 19.5837 16.2508 20.6673 19.7508 21.0837C22.0835 21.5 22.8417 21.9928 22.8417 23.3328C22.8417 24.6728 21.6762 25.5837 20.0926 25.5837C17.9253 25.5837 17.1835 24.6746 16.9253 23.4164C16.9015 23.2758 16.8292 23.1481 16.7209 23.0554C16.6125 22.9627 16.4752 22.911 16.3326 22.9091H14.909C14.8319 22.9074 14.7552 22.9213 14.6836 22.95C14.612 22.9787 14.547 23.0216 14.4924 23.0762C14.4379 23.1307 14.3949 23.1958 14.3662 23.2674C14.3375 23.339 14.3236 23.4156 14.3253 23.4928V23.5764C14.6599 25.66 15.9926 27.16 18.7435 27.5764V29.5764C18.7435 29.9091 18.9926 30.16 19.409 30.2437H20.6599C20.9926 30.2437 21.2435 29.9928 21.3253 29.5764V27.5764C23.8253 27.16 25.4926 25.4091 25.4926 23.16L25.4999 23.1673Z" fill="white"/>
<path d="M15.7492 31.9164C13.3514 31.0369 11.2814 29.4425 9.81914 27.3485C8.35684 25.2546 7.57269 22.7622 7.57269 20.2082C7.57269 17.6542 8.35684 15.1618 9.81914 13.0679C11.2814 10.974 13.3514 9.37953 15.7492 8.50005C15.9092 8.43085 16.0435 8.31339 16.1335 8.16409C16.2235 8.01479 16.2646 7.84111 16.251 7.66732V6.50005C16.2622 6.34694 16.2176 6.19495 16.1253 6.07226C16.033 5.94956 15.8994 5.86448 15.7492 5.83278C15.6319 5.82054 15.514 5.85017 15.4165 5.91641C12.3827 6.88069 9.73441 8.78535 7.85503 11.3547C5.97565 13.9241 4.96265 17.0249 4.96265 20.2082C4.96265 23.3916 5.97565 26.4924 7.85503 29.0617C9.73441 31.6311 12.3827 33.5358 15.4165 34.5C15.4857 34.5403 15.5636 34.5636 15.6436 34.5679C15.7236 34.5723 15.8035 34.5577 15.8768 34.5252C15.95 34.4927 16.0146 34.4434 16.0651 34.3812C16.1156 34.319 16.1506 34.2457 16.1674 34.1673C16.251 34.0837 16.251 34 16.251 33.8328V32.6673C16.251 32.4164 16.0001 32.0837 15.7492 31.9164ZM24.5837 5.91641C24.5143 5.87616 24.4363 5.85295 24.3562 5.84869C24.2761 5.84442 24.1961 5.85922 24.1228 5.89187C24.0495 5.92453 23.985 5.9741 23.9346 6.03652C23.8842 6.09894 23.8493 6.17244 23.8328 6.25096C23.751 6.33278 23.751 6.41641 23.751 6.58369V7.74914C23.765 7.9172 23.8174 8.07981 23.9041 8.22448C23.9908 8.36915 24.1094 8.49203 24.251 8.58369C26.6488 9.46316 28.7187 11.0576 30.181 13.1516C31.6433 15.2455 32.4275 17.7379 32.4275 20.2919C32.4275 22.8459 31.6433 25.3383 30.181 27.4322C28.7187 29.5261 26.6488 31.1206 24.251 32C24.0912 32.0693 23.957 32.1868 23.8674 32.3362C23.7777 32.4855 23.737 32.6592 23.751 32.8328V34C23.7397 34.1529 23.7841 34.3047 23.876 34.4273C23.9679 34.55 24.1011 34.6352 24.251 34.6673C24.3683 34.6796 24.4862 34.6499 24.5837 34.5837C27.6164 33.6061 30.2608 31.6918 32.1366 29.1162C34.0125 26.5406 35.0231 23.4364 35.0231 20.25C35.0231 17.0637 34.0125 13.9595 32.1366 11.3839C30.2608 8.80831 27.6164 6.89403 24.5837 5.91641Z" fill="white"/>
</g>
<defs>
<clipPath id="clip0_2958_6046">
<rect width="40" height="40" fill="white"/>
</clipPath>
</defs>
</svg>
