<svg width="56" height="56" viewBox="0 0 56 56" fill="none" xmlns="http://www.w3.org/2000/svg">
<g clip-path="url(#clip0_3070_11376)">
<path d="M28.0001 56C33.538 56 38.9515 54.3578 43.5561 51.2812C48.1606 48.2045 51.7495 43.8315 53.8687 38.7152C55.988 33.5988 56.5425 27.969 55.4621 22.5375C54.3817 17.106 51.715 12.1169 47.7991 8.20102C43.8832 4.28515 38.8941 1.61841 33.4626 0.538025C28.0311 -0.542361 22.4013 0.0121318 17.285 2.13139C12.1686 4.25064 7.79562 7.83947 4.71894 12.444C1.64226 17.0486 8.47711e-05 22.4621 8.47711e-05 28C-0.00898028 31.6796 0.709074 35.3247 2.11299 38.7259C3.51692 42.1271 5.57903 45.2174 8.18088 47.8192C10.7827 50.4211 13.873 52.4832 17.2742 53.8871C20.6754 55.291 24.3205 56.0091 28.0001 56V56Z" fill="#2775CA"/>
<path d="M35.7 32.4342C35.7 28.3615 33.2513 26.9487 28.3513 26.3658C24.8487 25.9 24.1513 24.9658 24.1513 23.3342C24.1513 21.7025 25.3171 20.6487 27.6487 20.6487C29.7513 20.6487 30.9171 21.3487 31.5 23.1C31.5626 23.2687 31.6755 23.4142 31.8235 23.5166C31.9714 23.619 32.1473 23.6735 32.3273 23.6727H34.1931C34.3011 23.6755 34.4086 23.6563 34.509 23.6162C34.6094 23.5762 34.7006 23.5161 34.7771 23.4396C34.8535 23.3632 34.9136 23.272 34.9537 23.1716C34.9937 23.0712 35.013 22.9637 35.0102 22.8556V22.7411C34.7847 21.4766 34.148 20.322 33.1989 19.4566C32.2497 18.5912 31.0413 18.0636 29.7614 17.9556V15.1556C29.7614 14.6898 29.4102 14.3411 28.8273 14.224H27.076C26.6102 14.224 26.2614 14.5727 26.1444 15.1556V17.8487C22.6342 18.3273 20.4171 20.6487 20.4171 23.5658C20.4171 27.4171 22.7513 28.9342 27.6513 29.5171C30.9171 30.1 31.9785 30.7898 31.9785 32.6658C31.9785 34.5418 30.3469 35.8171 28.1298 35.8171C25.0956 35.8171 24.0571 34.5444 23.6956 32.7829C23.6623 32.5861 23.561 32.4073 23.4093 32.2775C23.2577 32.1478 23.0654 32.0753 22.8658 32.0727H20.8727C20.7647 32.0703 20.6574 32.0898 20.5572 32.13C20.4569 32.1702 20.3659 32.2303 20.2895 32.3066C20.2132 32.383 20.1531 32.474 20.1129 32.5743C20.0727 32.6745 20.0532 32.7819 20.0556 32.8898V33.0069C20.524 35.924 22.3898 38.024 26.2411 38.6069V41.4069C26.2411 41.8727 26.5898 42.224 27.1727 42.3411H28.924C29.3898 42.3411 29.7411 41.9898 29.8556 41.4069V38.6069C33.3556 38.024 35.6898 35.5727 35.6898 32.424L35.7 32.4342Z" fill="white"/>
<path d="M22.0488 44.6829C18.6919 43.4516 15.794 41.2193 13.7467 38.2878C11.6995 35.3564 10.6017 31.867 10.6017 28.2914C10.6017 24.7158 11.6995 21.2264 13.7467 18.295C15.794 15.3635 18.6919 13.1312 22.0488 11.8999C22.2728 11.8031 22.4609 11.6386 22.5868 11.4296C22.7128 11.2206 22.7703 10.9774 22.7513 10.7341V9.09995C22.767 8.88559 22.7045 8.67281 22.5753 8.50104C22.4461 8.32926 22.2591 8.21015 22.0488 8.16577C21.8846 8.14864 21.7196 8.19011 21.583 8.28286C17.3356 9.63284 13.6281 12.2994 10.997 15.8965C8.36583 19.4936 6.94763 23.8347 6.94763 28.2914C6.94763 32.7481 8.36583 37.0892 10.997 40.6863C13.6281 44.2834 17.3356 46.95 21.583 48.2999C21.68 48.3563 21.7889 48.3889 21.9009 48.395C22.013 48.4011 22.1248 48.3806 22.2274 48.3352C22.33 48.2897 22.4203 48.2206 22.491 48.1335C22.5617 48.0464 22.6108 47.9438 22.6342 47.8341C22.7513 47.717 22.7513 47.5999 22.7513 47.3658V45.7341C22.7513 45.3829 22.4 44.917 22.0488 44.6829ZM34.4171 8.28286C34.32 8.22651 34.2108 8.19401 34.0986 8.18804C33.9865 8.18207 33.8745 8.20279 33.7719 8.2485C33.6693 8.29422 33.579 8.36362 33.5084 8.45101C33.4378 8.5384 33.389 8.64129 33.3659 8.75122C33.2513 8.86577 33.2513 8.98286 33.2513 9.21704V10.8487C33.271 11.084 33.3443 11.3116 33.4656 11.5141C33.587 11.7167 33.7531 11.8887 33.9513 12.017C37.3082 13.2483 40.2061 15.4806 42.2534 18.412C44.3006 21.3435 45.3984 24.8329 45.3984 28.4085C45.3984 31.9841 44.3006 35.4734 42.2534 38.4049C40.2061 41.3364 37.3082 43.5687 33.9513 44.7999C33.7276 44.8969 33.5398 45.0615 33.4142 45.2705C33.2887 45.4796 33.2317 45.7227 33.2513 45.9658V47.5999C33.2355 47.8139 33.2977 48.0264 33.4263 48.1982C33.555 48.3699 33.7415 48.4892 33.9513 48.5341C34.1155 48.5513 34.2805 48.5098 34.4171 48.417C38.6628 47.0484 42.365 44.3684 44.9912 40.7625C47.6174 37.1567 49.0322 32.8108 49.0322 28.3499C49.0322 23.8891 47.6174 19.5432 44.9912 15.9374C42.365 12.3315 38.6628 9.65151 34.4171 8.28286V8.28286Z" fill="white"/>
</g>
<defs>
<clipPath id="clip0_3070_11376">
<rect width="56" height="56" fill="white"/>
</clipPath>
</defs>
</svg>
