<svg width="36" height="36" viewBox="0 0 36 36" fill="none" xmlns="http://www.w3.org/2000/svg">
<g clip-path="url(#clip0_3070_11083)">
<path d="M18 36C27.9411 36 36 27.9411 36 18C36 8.05887 27.9411 0 18 0C8.05887 0 0 8.05887 0 18C0 27.9411 8.05887 36 18 36Z" fill="#26A17B"/>
<path fill-rule="evenodd" clip-rule="evenodd" d="M20.1624 19.5563V19.554C20.0386 19.563 19.4008 19.6013 17.9776 19.6013C16.8414 19.6013 16.0415 19.5675 15.7603 19.554V19.5574C11.3863 19.365 8.12152 18.6034 8.12152 17.6921C8.12152 16.782 11.3863 16.0204 15.7603 15.8246V18.7991C16.046 18.8194 16.865 18.8678 17.9968 18.8678C19.3546 18.8678 20.0353 18.8115 20.1624 18.8003V15.8269C24.5274 16.0215 27.7843 16.7831 27.7843 17.6921C27.7843 18.6034 24.5274 19.3628 20.1624 19.5563ZM20.1624 15.5175V12.8558H26.2531V8.79675H9.66952V12.8558H15.7603V15.5164C10.8103 15.7436 7.08765 16.7246 7.08765 17.8991C7.08765 19.0736 10.8103 20.0535 15.7603 20.2819V28.8116H20.1624V20.2796C25.1045 20.0524 28.8181 19.0725 28.8181 17.8991C28.8181 16.7258 25.1045 15.7459 20.1624 15.5175Z" fill="white"/>
</g>
<defs>
<clipPath id="clip0_3070_11083">
<rect width="36" height="36" fill="white"/>
</clipPath>
</defs>
</svg>
