<svg width="56" height="56" viewBox="0 0 56 56" fill="none" xmlns="http://www.w3.org/2000/svg">
<g clip-path="url(#clip0_3070_11372)">
<path d="M28 56C43.464 56 56 43.464 56 28C56 12.536 43.464 0 28 0C12.536 0 0 12.536 0 28C0 43.464 12.536 56 28 56Z" fill="#26A17B"/>
<path fill-rule="evenodd" clip-rule="evenodd" d="M31.3635 30.4207V30.4172C31.171 30.4312 30.1788 30.4907 27.965 30.4907C26.1975 30.4907 24.9533 30.4382 24.5158 30.4172V30.4225C17.7118 30.1232 12.6333 28.9385 12.6333 27.521C12.6333 26.1052 17.7118 24.9205 24.5158 24.616V29.243C24.9603 29.2745 26.2343 29.3497 27.9948 29.3497C30.107 29.3497 31.1658 29.2622 31.3635 29.2447V24.6195C38.1535 24.9222 43.2198 26.107 43.2198 27.521C43.2198 28.9385 38.1535 30.1197 31.3635 30.4207ZM31.3635 24.1382V19.9977H40.838V13.6837H15.0413V19.9977H24.5158V24.1365C16.8158 24.49 11.025 26.016 11.025 27.843C11.025 29.67 16.8158 31.1942 24.5158 31.5495V44.818H31.3635V31.546C39.0513 31.1925 44.828 29.6682 44.828 27.843C44.828 26.0177 39.0513 24.4935 31.3635 24.1382Z" fill="white"/>
</g>
<defs>
<clipPath id="clip0_3070_11372">
<rect width="56" height="56" fill="white"/>
</clipPath>
</defs>
</svg>
