<svg width="36" height="36" viewBox="0 0 36 36" fill="none" xmlns="http://www.w3.org/2000/svg">
<g clip-path="url(#clip0_3207_7691)">
<path d="M18 36C27.9411 36 36 27.9411 36 18C36 8.05887 27.9411 0 18 0C8.05887 0 0 8.05887 0 18C0 27.9411 8.05887 36 18 36Z" fill="#ED1E79"/>
<path d="M17.9971 5.65515V14.7794L25.709 18.2255L17.9971 5.65515Z" fill="white" fill-opacity="0.602"/>
<path d="M17.9981 5.65515L10.2852 18.2255L17.9981 14.7794V5.65515Z" fill="white"/>
<path d="M17.9971 24.138V30.3378L25.7141 19.6613L17.9971 24.138Z" fill="white" fill-opacity="0.602"/>
<path d="M17.9981 30.3378V24.137L10.2852 19.6613L17.9981 30.3378Z" fill="white"/>
<path d="M17.9971 22.7039L25.709 18.2261L17.9971 14.7821V22.7039Z" fill="white" fill-opacity="0.2"/>
<path d="M10.2852 18.2261L17.9981 22.7039V14.7821L10.2852 18.2261Z" fill="white" fill-opacity="0.602"/>
<path d="M5.93994 27.363C5.58939 27.6351 5.08274 27.5726 4.82844 27.2089C2.9272 24.4897 1.91029 21.2422 1.92871 17.9111C1.94714 14.5801 2.99991 11.344 4.93111 8.64599C5.18942 8.28511 5.69672 8.22822 6.04425 8.50424C6.39177 8.78026 6.4477 9.28455 6.1914 9.64686C4.48298 12.0619 3.55226 14.949 3.53583 17.92C3.5194 20.8911 4.41813 23.7883 6.09972 26.222C6.352 26.5872 6.2905 27.0908 5.93994 27.363Z" fill="white"/>
<path d="M8.79099 4.82856C8.42728 5.08287 8.36478 5.58951 8.63694 5.94006C8.9091 6.29062 9.41274 6.35212 9.77787 6.09985C12.2116 4.41825 15.1089 3.51952 18.0799 3.53595C21.0509 3.55239 23.938 4.48311 26.3531 6.19152C26.7154 6.44782 27.2197 6.39189 27.4957 6.04437C27.7717 5.69685 27.7148 5.18954 27.3539 4.93123C24.6559 3.00003 21.4198 1.94726 18.0888 1.92883C14.7577 1.91041 11.5102 2.92733 8.79099 4.82856Z" fill="white"/>
<path d="M31.1714 8.79112C30.917 8.4274 30.4104 8.3649 30.0598 8.63706C29.7093 8.90922 29.6478 9.41287 29.9001 9.77799C31.5817 12.2118 32.4804 15.109 32.464 18.08C32.4475 21.0511 31.5168 23.9382 29.8084 26.3532C29.5521 26.7155 29.608 27.2198 29.9555 27.4958C30.3031 27.7718 30.8104 27.7149 31.0687 27.3541C32.9999 24.656 34.0527 21.4199 34.0711 18.0889C34.0895 14.7579 33.0726 11.5103 31.1714 8.79112Z" fill="white"/>
<path d="M27.2087 31.1714C27.5725 30.9171 27.635 30.4105 27.3628 30.0599C27.0906 29.7094 26.587 29.6479 26.2219 29.9001C23.7881 31.5817 20.8909 32.4805 17.9198 32.464C14.9488 32.4476 12.0617 31.5169 9.64669 29.8085C9.28438 29.5522 8.78008 29.6081 8.50406 29.9556C8.22804 30.3031 8.28493 30.8104 8.64581 31.0688C11.3438 32.9999 14.5799 34.0527 17.911 34.0711C21.242 34.0896 24.4895 33.0727 27.2087 31.1714Z" fill="white"/>
</g>
<defs>
<clipPath id="clip0_3207_7691">
<rect width="36" height="36" fill="white"/>
</clipPath>
</defs>
</svg>
