<svg width="56" height="56" viewBox="0 0 56 56" fill="none" xmlns="http://www.w3.org/2000/svg">
<g clip-path="url(#clip0_3207_5087)">
<path d="M28 56C43.464 56 56 43.464 56 28C56 12.536 43.464 0 28 0C12.536 0 0 12.536 0 28C0 43.464 12.536 56 28 56Z" fill="#ED1E79"/>
<path d="M27.9956 8.797V22.9903L39.9919 28.3508L27.9956 8.797Z" fill="white" fill-opacity="0.602"/>
<path d="M27.9972 8.797L15.9993 28.3508L27.9972 22.9903V8.797Z" fill="white"/>
<path d="M27.9956 37.5482V47.1923L39.9999 30.5844L27.9956 37.5482Z" fill="white" fill-opacity="0.602"/>
<path d="M27.9972 47.1923V37.5466L15.9993 30.5844L27.9972 47.1923Z" fill="white"/>
<path d="M27.9956 35.3172L39.9919 28.3518L27.9956 22.9945V35.3172Z" fill="white" fill-opacity="0.2"/>
<path d="M15.9993 28.3518L27.9972 35.3172V22.9945L15.9993 28.3518Z" fill="white" fill-opacity="0.602"/>
<path d="M9.24007 42.5646C8.69477 42.988 7.90665 42.8907 7.51107 42.325C4.55359 38.0951 2.97172 33.0433 3.00038 27.8617C3.02904 22.6801 4.66669 17.6462 7.67077 13.4493C8.07259 12.8879 8.86173 12.7994 9.40232 13.2288C9.94291 13.6582 10.0299 14.4426 9.63123 15.0062C6.97369 18.7629 5.52591 23.254 5.50034 27.8756C5.47478 32.4972 6.8728 37.004 9.48862 40.7898C9.88106 41.3578 9.78538 42.1412 9.24007 42.5646Z" fill="white"/>
<path d="M13.675 7.51107C13.1093 7.90665 13.012 8.69477 13.4354 9.24007C13.8588 9.78538 14.6422 9.88106 15.2102 9.48862C18.996 6.8728 23.5028 5.47478 28.1244 5.50035C32.7461 5.52591 37.2371 6.97369 40.9938 9.63123C41.5574 10.0299 42.3419 9.94291 42.7712 9.40232C43.2006 8.86173 43.1121 8.07259 42.5507 7.67078C38.3538 4.66669 33.3199 3.02904 28.1383 3.00038C22.9567 2.97172 17.905 4.55359 13.675 7.51107Z" fill="white"/>
<path d="M48.4889 13.675C48.0933 13.1093 47.3052 13.012 46.7599 13.4354C46.2146 13.8588 46.1189 14.6422 46.5114 15.2102C49.1272 18.996 50.5252 23.5028 50.4997 28.1244C50.4741 32.7461 49.0263 37.2371 46.3688 40.9938C45.9701 41.5574 46.0571 42.3419 46.5977 42.7712C47.1383 43.2006 47.9274 43.1121 48.3292 42.5507C51.3333 38.3538 52.971 33.3199 52.9996 28.1383C53.0283 22.9567 51.4464 17.905 48.4889 13.675Z" fill="white"/>
<path d="M42.3249 48.4888C42.8907 48.0933 42.9879 47.3051 42.5645 46.7598C42.1412 46.2145 41.3577 46.1189 40.7897 46.5113C37.0039 49.1271 32.4971 50.5251 27.8755 50.4996C23.2539 50.474 18.7628 49.0262 15.0061 46.3687C14.4425 45.97 13.6581 46.057 13.2287 46.5976C12.7993 47.1382 12.8878 47.9273 13.4492 48.3291C17.6461 51.3332 22.68 52.9709 27.8617 52.9995C33.0433 53.0282 38.095 51.4463 42.3249 48.4888Z" fill="white"/>
</g>
<defs>
<clipPath id="clip0_3207_5087">
<rect width="56" height="56" fill="white"/>
</clipPath>
</defs>
</svg>
