<svg width="40" height="40" viewBox="0 0 40 40" fill="none" xmlns="http://www.w3.org/2000/svg">
<g clip-path="url(#clip0_3207_7601)">
<path d="M20 40C31.0457 40 40 31.0457 40 20C40 8.9543 31.0457 0 20 0C8.9543 0 0 8.9543 0 20C0 31.0457 8.9543 40 20 40Z" fill="#ED1E79"/>
<path d="M19.9968 6.28357V16.4217L28.5656 20.2506L19.9968 6.28357Z" fill="white" fill-opacity="0.602"/>
<path d="M19.9979 6.28357L11.428 20.2506L19.9979 16.4217V6.28357Z" fill="white"/>
<path d="M19.9968 26.8201V33.7088L28.5713 21.8459L19.9968 26.8201Z" fill="white" fill-opacity="0.602"/>
<path d="M19.9979 33.7088V26.819L11.428 21.8459L19.9979 33.7088Z" fill="white"/>
<path d="M19.9968 25.2266L28.5656 20.2513L19.9968 16.4247V25.2266Z" fill="white" fill-opacity="0.2"/>
<path d="M11.428 20.2513L19.9979 25.2266V16.4247L11.428 20.2513Z" fill="white" fill-opacity="0.602"/>
<path d="M6.60002 30.4033C6.21051 30.7057 5.64757 30.6362 5.36502 30.2321C3.25253 27.2107 2.12263 23.6024 2.1431 19.9012C2.16357 16.2001 3.33331 12.6044 5.47909 9.6066C5.7661 9.20562 6.32977 9.14241 6.71591 9.4491C7.10205 9.75579 7.16419 10.3161 6.87941 10.7187C4.98117 13.402 3.94704 16.6099 3.92878 19.9111C3.91052 23.2122 4.90911 26.4314 6.77755 29.1356C7.05786 29.5412 6.98952 30.1009 6.60002 30.4033Z" fill="white"/>
<path d="M9.76785 5.36501C9.36372 5.64757 9.29428 6.21051 9.59668 6.60002C9.89908 6.98952 10.4587 7.05786 10.8644 6.77755C13.5686 4.90911 16.7877 3.91052 20.0889 3.92878C23.39 3.94704 26.5979 4.98117 29.2813 6.87941C29.6838 7.16419 30.2441 7.10205 30.5508 6.71591C30.8575 6.32978 30.7943 5.7661 30.3933 5.47909C27.3955 3.33332 23.7999 2.16357 20.0987 2.1431C16.3976 2.12262 12.7892 3.25253 9.76785 5.36501Z" fill="white"/>
<path d="M34.6349 9.76785C34.3524 9.36373 33.7894 9.29428 33.3999 9.59668C33.0104 9.89908 32.9421 10.4587 33.2224 10.8644C35.0908 13.5686 36.0894 16.7877 36.0711 20.0889C36.0529 23.39 35.0188 26.5979 33.1205 29.2812C32.8357 29.6838 32.8979 30.2441 33.284 30.5508C33.6702 30.8575 34.2338 30.7943 34.5208 30.3933C36.6666 27.3955 37.8364 23.7999 37.8568 20.0987C37.8773 16.3976 36.7474 12.7892 34.6349 9.76785Z" fill="white"/>
<path d="M30.232 34.6348C30.6361 34.3523 30.7056 33.7894 30.4032 33.3999C30.1008 33.0103 29.5412 32.942 29.1355 33.2223C26.4313 35.0908 23.2122 36.0893 19.911 36.0711C16.6099 36.0528 13.402 35.0187 10.7186 33.1205C10.3161 32.8357 9.75573 32.8978 9.44904 33.284C9.14235 33.6701 9.20556 34.2338 9.60654 34.5208C12.6044 36.6666 16.2 37.8363 19.9011 37.8568C23.6023 37.8772 27.2107 36.7473 30.232 34.6348Z" fill="white"/>
</g>
<defs>
<clipPath id="clip0_3207_7601">
<rect width="40" height="40" fill="white"/>
</clipPath>
</defs>
</svg>
