<svg width="56" height="56" viewBox="0 0 56 56" fill="none" xmlns="http://www.w3.org/2000/svg">
<g clip-path="url(#clip0_3207_7472)">
<path d="M28.0002 0C33.538 3.43348e-05 38.9515 1.64223 43.5561 4.71893C48.1606 7.79563 51.7494 12.1686 53.8687 17.285C55.9879 22.4013 56.5424 28.0312 55.462 33.4626C54.3816 38.8941 51.7148 43.8832 47.7989 47.799C43.883 51.7149 38.8939 54.3816 33.4625 55.462C28.031 56.5424 22.4011 55.9879 17.2848 53.8686C12.1685 51.7493 7.79551 48.1605 4.71884 43.5559C1.64217 38.9514 1.06444e-10 33.5379 0 28C0.002731 20.5747 2.95362 13.4544 8.20409 8.20396C13.4545 2.95353 20.5749 0.00268497 28.0002 0Z" fill="#003371"/>
<path d="M42.1869 13.8549C41.3392 13.0102 40.1912 12.536 38.9945 12.536C37.7978 12.536 36.6498 13.0102 35.802 13.8549L24.8077 24.8149C24.3886 25.2322 24.056 25.7282 23.8291 26.2743C23.6022 26.8205 23.4854 27.4061 23.4854 27.9975C23.4854 28.5889 23.6022 29.1745 23.8291 29.7206C24.056 30.2668 24.3886 30.7627 24.8077 31.18L35.802 42.1399C36.6498 42.9846 37.7978 43.4589 38.9945 43.4589C40.1912 43.4589 41.3392 42.9846 42.1869 42.1399C42.606 41.7226 42.9386 41.2267 43.1655 40.6806C43.3925 40.1344 43.5093 39.5489 43.5093 38.9575C43.5093 38.3661 43.3925 37.7805 43.1655 37.2343C42.9386 36.6882 42.606 36.1923 42.1869 35.775L35.446 29.0599C35.3058 28.9208 35.1944 28.7553 35.1185 28.5729C35.0425 28.3906 35.0034 28.195 35.0034 27.9974C35.0034 27.7999 35.0425 27.6043 35.1185 27.4219C35.1944 27.2396 35.3058 27.0741 35.446 26.9349L42.1869 20.2199C42.6061 19.8027 42.9387 19.3067 43.1656 18.7606C43.3925 18.2144 43.5094 17.6288 43.5094 17.0374C43.5094 16.446 43.3925 15.8604 43.1656 15.3142C42.9387 14.7681 42.6061 14.2721 42.1869 13.8549Z" fill="#04795B"/>
<path d="M35.8003 42.1387C36.6443 42.9853 37.7899 43.4619 38.9853 43.4638C40.1806 43.4657 41.3278 42.9926 42.1743 42.1487C43.0209 41.3048 43.4976 40.1591 43.4994 38.9638C43.5013 37.7684 43.0283 36.6213 42.1843 35.7747L31.1898 24.8144C30.3458 23.9679 29.2002 23.4912 28.0048 23.4894C26.8095 23.4875 25.6623 23.9606 24.8158 24.8045C23.9692 25.6485 23.4926 26.7941 23.4907 27.9895C23.4889 29.1848 23.9619 30.332 24.8059 31.1785L35.8003 42.1387Z" fill="#0DB50A"/>
<path d="M31.1925 24.815L20.1982 13.8549C19.7807 13.4336 19.2842 13.0988 18.7371 12.8698C18.19 12.6407 17.6031 12.5219 17.0099 12.52C16.4168 12.5182 15.8292 12.6335 15.2807 12.8592C14.7322 13.0849 14.2337 13.4166 13.8136 13.8354C13.3936 14.2541 13.0603 14.7516 12.8328 15.2994C12.6054 15.8472 12.4883 16.4344 12.4883 17.0276C12.4882 17.6207 12.6052 18.208 12.8326 18.7558C13.0599 19.3036 13.3931 19.8011 13.8131 20.2199L20.5492 26.935C20.6894 27.0741 20.8007 27.2397 20.8766 27.422C20.9525 27.6044 20.9916 27.7999 20.9916 27.9975C20.9916 28.195 20.9525 28.3906 20.8766 28.5729C20.8007 28.7553 20.6894 28.9208 20.5492 29.06L13.8131 35.775C12.9718 36.6223 12.5009 37.7688 12.504 38.9628C12.507 40.1568 12.9836 41.3009 13.8293 42.1439C14.6749 42.9869 15.8205 43.4599 17.0146 43.4592C18.2086 43.4584 19.3536 42.984 20.1982 42.1399L27.9974 34.3601L31.1925 31.18C31.6116 30.7628 31.9442 30.2668 32.1712 29.7207C32.3981 29.1745 32.5149 28.5889 32.5149 27.9975C32.5149 27.4061 32.3981 26.8205 32.1712 26.2743C31.9442 25.7282 31.6116 25.2322 31.1925 24.815Z" fill="#0AE33A"/>
<path d="M38.9919 21.54C39.8814 21.5372 40.75 21.2709 41.4882 20.7748C42.2264 20.2786 42.8009 19.5748 43.1394 18.7523C43.4778 17.9298 43.5649 17.0254 43.3897 16.1534C43.2145 15.2814 42.7848 14.4809 42.1549 13.853C41.525 13.225 40.7231 12.7979 39.8506 12.6254C38.978 12.4529 38.0739 12.5428 37.2525 12.8838C36.431 13.2248 35.7291 13.8016 35.2352 14.5413C34.7414 15.2811 34.4778 16.1505 34.4778 17.04C34.4797 18.2353 34.9563 19.381 35.8029 20.2249C36.6495 21.0688 37.7966 21.5419 38.9919 21.54Z" fill="#0AE33A"/>
</g>
<defs>
<clipPath id="clip0_3207_7472">
<rect width="56" height="56" fill="white"/>
</clipPath>
</defs>
</svg>
