<svg width="36" height="36" viewBox="0 0 36 36" fill="none" xmlns="http://www.w3.org/2000/svg">
<g clip-path="url(#clip0_3207_7718)">
<path d="M18.0001 0C21.5602 2.20724e-05 25.0403 1.05572 28.0003 3.0336C30.9604 5.01148 33.2675 7.8227 34.6299 11.1118C35.9922 14.4008 36.3487 18.02 35.6541 21.5117C34.9596 25.0033 33.2452 28.2106 30.7279 30.728C28.2105 33.2453 25.0032 34.9596 21.5116 35.6541C18.0199 36.3487 14.4007 35.9922 11.1117 34.6298C7.82261 33.2674 5.0114 30.9603 3.03354 28.0002C1.05568 25.0402 0 21.5601 0 18C0.00175564 13.2266 1.89876 8.64925 5.27406 5.27398C8.64935 1.8987 13.2267 0.00172605 18.0001 0Z" fill="#003371"/>
<path d="M27.1201 8.90667C26.5751 8.3637 25.8371 8.05884 25.0678 8.05884C24.2985 8.05884 23.5605 8.3637 23.0155 8.90667L15.9477 15.9524C15.6783 16.2207 15.4645 16.5395 15.3186 16.8906C15.1728 17.2417 15.0977 17.6182 15.0977 17.9983C15.0977 18.3785 15.1728 18.755 15.3186 19.1061C15.4645 19.4572 15.6783 19.776 15.9477 20.0443L23.0155 27.0899C23.5605 27.6329 24.2985 27.9378 25.0678 27.9378C25.8372 27.9378 26.5751 27.6329 27.1201 27.0899C27.3895 26.8217 27.6033 26.5029 27.7492 26.1518C27.8951 25.8007 27.9702 25.4242 27.9702 25.0441C27.9702 24.6639 27.8951 24.2874 27.7492 23.9363C27.6033 23.5853 27.3895 23.2664 27.1201 22.9982L22.7866 18.6814C22.6965 18.5919 22.6249 18.4855 22.5761 18.3683C22.5273 18.2511 22.5021 18.1253 22.5021 17.9983C22.5021 17.8713 22.5273 17.7456 22.5761 17.6284C22.6249 17.5111 22.6965 17.4047 22.7866 17.3153L27.1201 12.9985C27.3896 12.7303 27.6034 12.4114 27.7492 12.0603C27.8951 11.7092 27.9702 11.3328 27.9702 10.9526C27.9702 10.5724 27.8951 10.1959 27.7492 9.84483C27.6034 9.49374 27.3896 9.17491 27.1201 8.90667Z" fill="#04795B"/>
<path d="M23.0144 27.0892C23.5569 27.6334 24.2934 27.9398 25.0618 27.941C25.8303 27.9423 26.5677 27.6381 27.112 27.0956C27.6562 26.5531 27.9626 25.8166 27.9638 25.0482C27.965 24.2797 27.6609 23.5423 27.1184 22.9981L20.0505 15.9522C19.5079 15.4079 18.7714 15.1015 18.003 15.1003C17.2346 15.0991 16.4971 15.4033 15.9529 15.9458C15.4087 16.4883 15.1023 17.2248 15.1011 17.9933C15.0999 18.7617 15.404 19.4991 15.9465 20.0434L23.0144 27.0892Z" fill="#0DB50A"/>
<path d="M20.0522 15.9525L12.9844 8.90672C12.7161 8.63588 12.3969 8.42067 12.0452 8.27342C11.6935 8.12616 11.3161 8.04976 10.9349 8.0486C10.5536 8.04743 10.1758 8.12152 9.8232 8.26662C9.4706 8.41171 9.1501 8.62497 8.88007 8.89415C8.61004 9.16334 8.39578 9.48317 8.24958 9.83532C8.10338 10.1875 8.0281 10.565 8.02808 10.9463C8.02805 11.3276 8.10326 11.7051 8.24941 12.0573C8.39556 12.4094 8.60977 12.7293 8.87977 12.9985L13.2101 17.3153C13.3002 17.4048 13.3718 17.5112 13.4206 17.6284C13.4694 17.7457 13.4945 17.8714 13.4945 17.9984C13.4945 18.1254 13.4694 18.2511 13.4206 18.3683C13.3718 18.4855 13.3002 18.5919 13.2101 18.6814L8.87977 22.9982C8.33889 23.5429 8.03621 24.2799 8.03816 25.0475C8.0401 25.8151 8.34652 26.5506 8.89015 27.0925C9.43379 27.6344 10.1702 27.9385 10.9378 27.938C11.7054 27.9376 12.4415 27.6325 12.9844 27.09L17.9982 22.0886L20.0522 20.0443C20.3217 19.7761 20.5355 19.4572 20.6813 19.1061C20.8272 18.755 20.9023 18.3786 20.9023 17.9984C20.9023 17.6182 20.8272 17.2417 20.6813 16.8906C20.5355 16.5395 20.3217 16.2207 20.0522 15.9525Z" fill="#0AE33A"/>
<path d="M25.0663 13.8472C25.638 13.8454 26.1965 13.6742 26.671 13.3552C27.1455 13.0363 27.5149 12.5838 27.7325 12.0551C27.95 11.5263 28.006 10.9449 27.8934 10.3844C27.7807 9.8238 27.5045 9.30918 27.0996 8.90551C26.6946 8.50184 26.1792 8.22722 25.6182 8.11633C25.0573 8.00544 24.4761 8.06326 23.948 8.28248C23.42 8.5017 22.9687 8.87249 22.6512 9.34803C22.3337 9.82357 22.1643 10.3825 22.1643 10.9543C22.1655 11.7227 22.4719 12.4592 23.0162 13.0017C23.5604 13.5443 24.2978 13.8484 25.0663 13.8472Z" fill="#0AE33A"/>
</g>
<defs>
<clipPath id="clip0_3207_7718">
<rect width="36" height="36" fill="white"/>
</clipPath>
</defs>
</svg>
