<svg width="40" height="40" viewBox="0 0 40 40" fill="none" xmlns="http://www.w3.org/2000/svg">
<g clip-path="url(#clip0_3207_7628)">
<path d="M20.0001 0C23.9557 2.45248e-05 27.8225 1.17302 31.1115 3.37067C34.4005 5.56831 36.9639 8.69189 38.4776 12.3464C39.9914 16.0009 40.3874 20.0223 39.6157 23.9019C38.844 27.7815 36.9391 31.3451 34.1421 34.1422C31.345 36.9392 27.7814 38.844 23.9018 39.6157C20.0221 40.3874 16.0008 39.9913 12.3463 38.4776C8.69179 36.9638 5.56822 34.4004 3.3706 31.1114C1.17298 27.8224 0 23.9556 0 20C0.00195072 14.6962 2.10973 9.61028 5.86006 5.85997C9.61039 2.10967 14.6964 0.00191783 20.0001 0Z" fill="#003371"/>
<path d="M30.1334 9.89638C29.5279 9.29309 28.7079 8.95435 27.8531 8.95435C26.9983 8.95435 26.1783 9.29309 25.5728 9.89638L17.7197 17.725C17.4203 18.0231 17.1828 18.3773 17.0207 18.7674C16.8586 19.1575 16.7751 19.5758 16.7751 19.9982C16.7751 20.4207 16.8586 20.839 17.0207 21.2291C17.1828 21.6192 17.4203 21.9734 17.7197 22.2715L25.5728 30.1C26.1783 30.7033 26.9983 31.0421 27.8531 31.0421C28.7079 31.0421 29.5279 30.7033 30.1334 30.1C30.4328 29.8019 30.6703 29.4477 30.8324 29.0576C30.9945 28.6675 31.0779 28.2492 31.0779 27.8268C31.0779 27.4044 30.9945 26.9861 30.8324 26.596C30.6703 26.2059 30.4328 25.8517 30.1334 25.5536L25.3185 20.7572C25.2183 20.6578 25.1388 20.5395 25.0845 20.4093C25.0303 20.279 25.0023 20.1393 25.0023 19.9982C25.0023 19.8571 25.0303 19.7174 25.0845 19.5872C25.1388 19.4569 25.2183 19.3387 25.3185 19.2393L30.1334 14.4429C30.4328 14.1448 30.6704 13.7906 30.8325 13.4005C30.9946 13.0103 31.078 12.5921 31.078 12.1696C31.078 11.7472 30.9946 11.3289 30.8325 10.9388C30.6704 10.5487 30.4328 10.1944 30.1334 9.89638Z" fill="#04795B"/>
<path d="M25.5716 30.099C26.1744 30.7037 26.9928 31.0442 27.8466 31.0455C28.7004 31.0469 29.5198 30.709 30.1245 30.1062C30.7292 29.5034 31.0696 28.6851 31.071 27.8312C31.0723 26.9774 30.7344 26.158 30.1316 25.5533L22.2784 17.7245C21.6756 17.1199 20.8572 16.7794 20.0034 16.7781C19.1496 16.7768 18.3302 17.1147 17.7255 17.7175C17.1208 18.3203 16.7804 19.1386 16.7791 19.9924C16.7777 20.8463 17.1156 21.6656 17.7184 22.2703L25.5716 30.099Z" fill="#0DB50A"/>
<path d="M22.2803 17.725L14.4272 9.89635C14.129 9.59542 13.7744 9.3563 13.3836 9.19269C12.9928 9.02907 12.5736 8.94418 12.1499 8.94289C11.7263 8.94159 11.3065 9.02391 10.9148 9.18513C10.523 9.34635 10.1669 9.5833 9.86683 9.88239C9.56679 10.1815 9.32873 10.5369 9.16628 10.9281C9.00383 11.3194 8.9202 11.7389 8.92017 12.1625C8.92013 12.5862 9.00371 13.0057 9.1661 13.397C9.32848 13.7883 9.5665 14.1437 9.86649 14.4428L14.678 19.2393C14.7781 19.3387 14.8576 19.4569 14.9118 19.5871C14.966 19.7174 14.994 19.8571 14.994 19.9982C14.994 20.1393 14.966 20.279 14.9118 20.4092C14.8576 20.5395 14.7781 20.6577 14.678 20.7571L9.86649 25.5536C9.26551 26.1588 8.9292 26.9777 8.93137 27.8306C8.93353 28.6835 9.27399 29.5006 9.87803 30.1028C10.4821 30.7049 11.3003 31.0428 12.1532 31.0423C13.0061 31.0417 13.8239 30.7028 14.4272 30.0999L19.9981 24.5429L22.2803 22.2714C22.5797 21.9734 22.8173 21.6192 22.9794 21.2291C23.1415 20.8389 23.2249 20.4207 23.2249 19.9982C23.2249 19.5758 23.1415 19.1575 22.9794 18.7674C22.8173 18.3773 22.5797 18.023 22.2803 17.725Z" fill="#0AE33A"/>
<path d="M27.8514 15.3857C28.4867 15.3837 29.1071 15.1935 29.6344 14.8391C30.1616 14.4847 30.5721 13.982 30.8138 13.3944C31.0555 12.8069 31.1178 12.161 30.9926 11.5381C30.8674 10.9152 30.5605 10.3435 30.1106 9.89493C29.6607 9.4464 29.0879 9.14127 28.4647 9.01806C27.8414 8.89485 27.1956 8.95909 26.6089 9.20267C26.0221 9.44625 25.5207 9.85824 25.168 10.3866C24.8152 10.915 24.627 11.536 24.627 12.1714C24.6283 13.0252 24.9688 13.8435 25.5735 14.4463C26.1781 15.0491 26.9975 15.387 27.8514 15.3857Z" fill="#0AE33A"/>
</g>
<defs>
<clipPath id="clip0_3207_7628">
<rect width="40" height="40" fill="white"/>
</clipPath>
</defs>
</svg>
